<?xml version="1.0" encoding="utf-8"?>
<!-- Generator: Adobe Illustrator 21.0.0, SVG Export Plug-In . SVG Version: 6.00 Build 0)  -->
<svg version="1.1" id="Layer_1" xmlns="http://www.w3.org/2000/svg" xmlns:xlink="http://www.w3.org/1999/xlink" x="0px" y="0px"
	 viewBox="0 0 303 349.4" style="enable-background:new 0 0 303 349.4;" xml:space="preserve">
<style type="text/css">
	.st0{fill:#231F20;}
	.st1{fill:#E6BF20;}
	.st2{fill:#E7BF21;}
	.st3{fill:#FFFFFF;}
</style>
<title>Artboard 1</title>
<g id="Logo">
	<path class="st0" d="M151.2,318.8L26.6,246.5l0.3-144.2l125-71.8l124.7,72.4L276.2,247L151.2,318.8z M45,235.8l106.3,61.7
		l106.6-61.2l0.3-122.9L151.9,51.8L45.3,113L45,235.8z"/>
	<path class="st1" d="M151.2,349.4L0.1,261.7L0.5,87L152,0L303,87.7l-0.4,174.7L151.2,349.4z M18.6,251.1l132.7,77l133-76.4
		l0.3-153.4l-132.7-77l-133,76.4L18.6,251.1z"/>
	<path class="st2" d="M175.5,161.9l15.2-8.8l-39.1-67.7V148l-24,13.8l-15.1-8.8l-39.2,67.9l54.2-31.4l24,13.9V221h78.4l-0.1-0.3
		l-54.3-31.1L175.5,161.9z M169.4,186l-17.9,10.3L133.7,186l0-20.6l17.9-10.3l17.8,10.3L169.4,186z"/>
	<polygon points="133.7,165.4 133.7,186 151.5,196.3 169.4,186 169.4,165.4 151.6,155.1 	"/>
	<polygon points="127.6,161.8 151.6,148 151.6,85.4 151.6,85 73,130.1 112.5,153 	"/>
	<polygon points="73.3,220.9 73,221.1 151.4,266.5 151.5,221 151.5,203.4 127.5,189.5 	"/>
	<polygon points="190.7,153.1 175.5,161.9 175.5,189.6 229.8,220.8 230.1,221 230.2,130.3 	"/>
	<path class="st3" d="M151.6,51.2l-107,61.4l-0.3,123.4l106.8,62l107-61.5l0.3-123.4L151.6,51.2z M230.1,221l-0.4-0.2l0.1,0.3h-78.4
		v45.5L73,221.1l0.3-0.2l39.2-67.9L73,130.1L151.6,85v0.4l39.1,67.7l39.5-22.8L230.1,221z"/>
</g>
<g id="Transparent_Logo">
	<path class="st0" d="M151.1,318.8L26.5,246.5l0.3-144.2l125-71.8l124.7,72.4L276.2,247L151.1,318.8z M44.9,235.8l106.3,61.7
		l106.5-61.2l0.3-122.9L151.8,51.8L45.2,113L44.9,235.8z"/>
	<path class="st1" d="M151.1,349.4L0,261.7L0.4,87L151.9,0L303,87.7l-0.4,174.7L151.1,349.4z M18.5,251.1l132.7,77l133-76.4
		l0.4-153.4l-132.7-77l-133,76.4L18.5,251.1z"/>
	<path class="st2" d="M175.4,161.9l15.2-8.8l-39.1-67.7V148l-24,13.8l-15.1-8.8L73.2,221l54.2-31.4l24,13.9V221h78.4l-0.1-0.3
		l-54.3-31.1V161.9z M169.3,186l-17.9,10.3L133.6,186l0-20.6l17.9-10.3l17.8,10.3L169.3,186z"/>
	<polygon points="133.6,165.4 133.6,186 151.4,196.3 169.3,186 169.3,165.4 151.5,155.1 	"/>
	<polygon points="127.5,161.8 151.5,148 151.5,85.4 151.5,85 72.9,130.1 112.4,153 	"/>
	<polygon points="73.2,220.9 72.9,221.1 151.3,266.5 151.4,221 151.4,203.4 127.4,189.5 	"/>
	<polygon points="190.6,153.1 175.4,161.9 175.4,189.6 229.7,220.8 230,221 230.1,130.3 	"/>
</g>
</svg>
