<svg id="Trans_w_Text" data-name="Trans w/ Text" xmlns="http://www.w3.org/2000/svg" viewBox="0 0 432 432"><defs><style>.cls-1{fill:#231f20;}.cls-2{fill:#e6bf20;}.cls-3{fill:#e7bf21;}</style></defs><title>Artboard 1</title><path class="cls-1" d="M215.73,299.39,115.33,241.11l.26-116.1L216.26,67.19l100.41,58.28-.26,116.1Zm-85.54-66.81,85.58,49.67L301.58,233l.23-99L216.23,84.33l-85.81,49.28Z"/><path class="cls-2" d="M215.68,324,94,253.35l.32-140.68,122-70.06L338,113.23l-.32,140.67Zm-106.8-79.15,106.84,62L322.84,245.3l.29-123.53-106.84-62L109.16,121.28Z"/><path class="cls-3" d="M235.26,173l12.25-7.08L216,111.39v50.42l-19.34,11.11-12.16-7.06-31.58,54.7,43.67-25.3,19.31,11.17V220.6h63.17l-.12-.2-43.7-25.08Zm-4.94,19.44-14.39,8.26-14.35-8.33,0-16.59L216,167.52l14.35,8.33Z"/><polygon points="201.62 175.78 201.58 192.38 215.94 200.71 230.32 192.44 230.36 175.85 216.01 167.52 201.62 175.78"/><polygon points="196.68 172.92 216.03 161.81 216.03 111.39 216.03 111.08 152.71 147.39 184.52 165.86 196.68 172.92"/><polygon points="152.94 220.56 152.72 220.69 215.89 257.27 215.91 220.6 215.92 206.42 196.61 195.25 152.94 220.56"/><polygon points="247.52 165.93 235.26 173 235.27 195.31 278.96 220.4 279.26 220.56 279.29 147.57 247.52 165.93"/><path class="cls-1" d="M111.58,367.11v-5.74a10.3,10.3,0,0,1,2.63-7.32q2.63-2.82,7.73-2.82a11.4,11.4,0,0,1,5.39,1.16q2.17,1.15,2.17,2.34a1.76,1.76,0,0,1-.48,1.15,1.4,1.4,0,0,1-1.07.56,2.09,2.09,0,0,1-1-.47,9.82,9.82,0,0,0-1.9-1,7.93,7.93,0,0,0-3-.49,7,7,0,0,0-5.23,1.81,6.89,6.89,0,0,0-1.8,5.07v5.71a7,7,0,0,0,1.8,5.12,7.11,7.11,0,0,0,5.28,1.81,8.39,8.39,0,0,0,5-1.49,2,2,0,0,1,1-.49,1.45,1.45,0,0,1,1.15.54,1.78,1.78,0,0,1,.46,1.18q0,1.23-2.25,2.39a12.15,12.15,0,0,1-5.58,1.16q-5.15,0-7.78-2.79A10.36,10.36,0,0,1,111.58,367.11Z"/><path class="cls-1" d="M134.55,375.54V337.33a1.12,1.12,0,0,1,.48-.91,2,2,0,0,1,1.24-.37,2.08,2.08,0,0,1,1.26.38,1.11,1.11,0,0,1,.51.91v18a7.91,7.91,0,0,1,7.08-4.13,8.93,8.93,0,0,1,6.68,3,9.89,9.89,0,0,1,2.82,7.08v14.27a1.2,1.2,0,0,1-.51,1,2.06,2.06,0,0,1-1.26.38,2,2,0,0,1-1.18-.37,1.18,1.18,0,0,1-.54-1V361.3a6.66,6.66,0,0,0-2-4.71,6.28,6.28,0,0,0-9.15-.21,6.51,6.51,0,0,0-2,4.93v14.24a1.22,1.22,0,0,1-.54,1,1.91,1.91,0,0,1-1.23.43,1.81,1.81,0,0,1-1.21-.43A1.24,1.24,0,0,1,134.55,375.54Z"/><path class="cls-1" d="M160.2,367.11v-6a9.37,9.37,0,0,1,3-6.95,10.37,10.37,0,0,1,14.3-.13,9.18,9.18,0,0,1,3,7,6.87,6.87,0,0,1-.35,2.41A2.26,2.26,0,0,1,179,364.7a5.47,5.47,0,0,1-1.42.48,11.27,11.27,0,0,1-1.77.11H163.69v2a6.27,6.27,0,0,0,2.28,5.07,10,10,0,0,0,9.07,1.37,9.28,9.28,0,0,0,2.09-1.08,2.22,2.22,0,0,1,1.16-.54,1.33,1.33,0,0,1,1,.56,1.77,1.77,0,0,1,.46,1.1q0,1.13-2.31,2.33a13.89,13.89,0,0,1-14.06-1.61A9.34,9.34,0,0,1,160.2,367.11Zm3.49-4.4h10.73a4.41,4.41,0,0,0,2.15-.35,1.64,1.64,0,0,0,.54-1.47,6.65,6.65,0,0,0-1.9-4.69,6.32,6.32,0,0,0-4.8-2,6.53,6.53,0,0,0-4.75,1.92,6.19,6.19,0,0,0-2,4.58Z"/><path class="cls-1" d="M185.74,375.54v-22.7a1.12,1.12,0,0,1,.48-.91,2,2,0,0,1,1.23-.38,1.83,1.83,0,0,1,1.18.38,1.14,1.14,0,0,1,.48.92v2.66a8.48,8.48,0,0,1,2.84-3,7.66,7.66,0,0,1,4.35-1.25h1.88a1.27,1.27,0,0,1,1,.49,1.75,1.75,0,0,1,0,2.29,1.27,1.27,0,0,1-1,.49h-1.88a6.76,6.76,0,0,0-4.94,2.17,7.68,7.68,0,0,0-2.14,5.65v13.22a1.24,1.24,0,0,1-.51,1,1.88,1.88,0,0,1-1.26.43,1.81,1.81,0,0,1-1.21-.43A1.24,1.24,0,0,1,185.74,375.54Z"/><path class="cls-1" d="M200.87,352.89a1.43,1.43,0,0,1,.7-1.15,2.41,2.41,0,0,1,1.45-.51c.68,0,1.09.25,1.24.75l7.35,19.69L218.52,352a1.18,1.18,0,0,1,1.18-.75,2.46,2.46,0,0,1,1.42.51,1.46,1.46,0,0,1,.73,1.2.62.62,0,0,1-.11.43l-8.32,22.54-1,2.63q-.27.7-1,2.52a17.67,17.67,0,0,1-1.31,2.63l-1.4,2.14a7.62,7.62,0,0,1-1.75,1.93,11,11,0,0,1-2,1.1,6,6,0,0,1-2.41.51,1.42,1.42,0,0,1-1.61-1.61c0-1.11.36-1.67,1.07-1.67q2.47,0,4.59-3a21.25,21.25,0,0,0,3.19-7.35L201,353.37A.93.93,0,0,1,200.87,352.89Z"/><path class="cls-1" d="M226.46,375.54V337.28a1.12,1.12,0,0,1,.48-.91,2,2,0,0,1,1.23-.38,2.06,2.06,0,0,1,1.26.38,1.11,1.11,0,0,1,.51.91v38.26a1.24,1.24,0,0,1-.51,1,1.88,1.88,0,0,1-1.26.43,1.81,1.81,0,0,1-1.21-.43A1.24,1.24,0,0,1,226.46,375.54Z"/><path class="cls-1" d="M237.57,375.54V337.28a1.12,1.12,0,0,1,.48-.91,1.94,1.94,0,0,1,1.23-.38,2.06,2.06,0,0,1,1.26.38,1.1,1.1,0,0,1,.51.91v38.26a1.24,1.24,0,0,1-.51,1,1.89,1.89,0,0,1-1.26.43,1.82,1.82,0,0,1-1.21-.43A1.24,1.24,0,0,1,237.57,375.54Z"/><path class="cls-1" d="M248.25,343.37a2.11,2.11,0,0,1-.7-1.58,2,2,0,0,1,.7-1.56,2.43,2.43,0,0,1,1.71-.64,2.28,2.28,0,0,1,1.64.64,2.09,2.09,0,0,1,.67,1.56,2.16,2.16,0,0,1-.67,1.58A2.23,2.23,0,0,1,250,344,2.37,2.37,0,0,1,248.25,343.37Zm0,32.17v-22.7a1.12,1.12,0,0,1,.48-.91,2,2,0,0,1,1.23-.38,2.08,2.08,0,0,1,1.26.38,1.11,1.11,0,0,1,.51.91v22.7a1.23,1.23,0,0,1-.54,1,1.91,1.91,0,0,1-1.24.43,1.81,1.81,0,0,1-1.21-.43A1.25,1.25,0,0,1,248.25,375.54Z"/><path class="cls-1" d="M258.23,367.22V352.89a1.21,1.21,0,0,1,.51-.91,1.88,1.88,0,0,1,1.26-.43,1.84,1.84,0,0,1,1.18.43,1.19,1.19,0,0,1,.54.91v14.3a6.73,6.73,0,0,0,2,4.76,6.39,6.39,0,0,0,9.45,0,6.74,6.74,0,0,0,2-4.76V352.84a1.09,1.09,0,0,1,.54-.91,2.1,2.1,0,0,1,1.23-.37,2,2,0,0,1,1.21.38,1.11,1.11,0,0,1,.51.91v14.38a9.67,9.67,0,0,1-3,7.06,10.18,10.18,0,0,1-17.36-7.06Z"/><path class="cls-1" d="M285.11,375.54v-22.7a1.13,1.13,0,0,1,.48-.91,2,2,0,0,1,1.24-.38,1.83,1.83,0,0,1,1.18.38,1.15,1.15,0,0,1,.49.93v2.5a7.95,7.95,0,0,1,7.14-4.13,7.64,7.64,0,0,1,4.61,1.49,8.74,8.74,0,0,1,3,3.93,9.86,9.86,0,0,1,3.54-4A8.57,8.57,0,0,1,317.73,354a10,10,0,0,1,2.68,7.3v14.27a1.25,1.25,0,0,1-.51,1,1.89,1.89,0,0,1-1.26.43,1.81,1.81,0,0,1-1.21-.43,1.24,1.24,0,0,1-.51-1V361.3a6.66,6.66,0,0,0-1.85-5,5.91,5.91,0,0,0-4.27-1.82,6.1,6.1,0,0,0-4.37,1.85,6.31,6.31,0,0,0-1.9,4.74V375.6q0,1.34-1.77,1.34T301,375.6V361.14a6.62,6.62,0,0,0-1.8-4.74,5.74,5.74,0,0,0-4.32-1.9,6.15,6.15,0,0,0-4.43,1.85,6.58,6.58,0,0,0-1.91,5v14.24a1.22,1.22,0,0,1-.54,1,1.92,1.92,0,0,1-1.23.43,1.81,1.81,0,0,1-1.21-.43A1.24,1.24,0,0,1,285.11,375.54Z"/></svg>